<?xml version="1.0" encoding="utf-8"?>
<!-- Generator: Adobe Illustrator 23.0.4, SVG Export Plug-In . SVG Version: 6.00 Build 0)  -->
<svg version="1.1" id="Laag_1" xmlns="http://www.w3.org/2000/svg" xmlns:xlink="http://www.w3.org/1999/xlink" x="0px" y="0px"
	 viewBox="0 0 86 20.8" style="enable-background:new 0 0 86 20.8;" xml:space="preserve">
<style type="text/css">
	.st0{fill:url(#Shape_2_);}
	.st1{fill:#FFFFFF;}
	.st2{fill:url(#Shape_3_);}
	.st3{opacity:0.3;enable-background:new    ;}
</style>
<g id="Artboard_1_">
	<g id="techgrounds-groen_1_">
		
			<linearGradient id="Shape_2_" gradientUnits="userSpaceOnUse" x1="-255.4244" y1="381.9943" x2="-254.4244" y2="381.9943" gradientTransform="matrix(39.8441 0 0 -15.1731 10177.1533 5806.6055)">
			<stop  offset="0" style="stop-color:#2BFA4F"/>
			<stop  offset="1" style="stop-color:#2CBF98"/>
		</linearGradient>
		<path id="Shape_1_" class="st0" d="M2.3,13.8l-1.3,0c-0.6,0-1.1-0.5-1-1.1c0.1-0.6,0.7-1.1,1.3-1.1l1.3,0c0.6,0,1.1,0.5,1,1.1
			S2.9,13.8,2.3,13.8z M1.9,5.2l4,0c0.6,0,1.2-0.5,1.3-1.1C7.3,3.5,6.9,3,6.3,3l-4,0C1.7,3,1.1,3.5,1,4.1S1.3,5.1,1.9,5.2z
			 M37.9,3.1l-16.9,0l-6,0l-1.4,0c0,0,0,0,0,0L9.4,3C8.8,3,8.2,3.5,8.1,4.1C8,4.7,8.4,5.2,9,5.2l0.9,0l1,0c0.6,0,1.1,0.5,1,1.1
			c-0.1,0.6-0.7,1.1-1.3,1.1l-3.2,0l-4.2,0c-0.6,0-1.2,0.5-1.3,1.1C1.7,9,2.1,9.5,2.7,9.5l5.2,0l0.7,0c0.6,0,1.1,0.5,1,1.1
			c-0.1,0.6-0.7,1.1-1.3,1.1l-1.9,0l-0.9,0c-0.6,0-1.2,0.5-1.3,1.1c-0.1,0.6,0.3,1.1,1,1.1l3.8,0l0.3,0c0.6,0,1.1,0.5,1,1.1
			C10.1,15.5,9.5,16,8.9,16l-0.9,0l-4.7,0c-0.6,0-1.2,0.5-1.3,1.1c-0.1,0.6,0.3,1.1,1,1.1l3.2,0l12.7,0.1l-0.4,0l16.9,0
			c1.2,0,2.4-0.9,2.6-2.1l1.9-10.8C40,4.1,39.2,3.1,37.9,3.1z"/>
	</g>
</g>
<g>
	<path class="st1" d="M14.9,14.4L16,7.9h-2.2l0.3-1.4H20l-0.3,1.4h-2.2l-1.1,6.5H14.9z"/>
	<path class="st1" d="M24,13c-0.3,0.5-0.7,0.8-1.1,1.1c-0.4,0.3-1,0.4-1.6,0.4c-0.4,0-0.8-0.1-1.1-0.2s-0.6-0.3-0.8-0.5
		c-0.2-0.2-0.4-0.5-0.5-0.8c-0.1-0.3-0.2-0.6-0.2-1c0-0.4,0.1-0.8,0.2-1.2c0.2-0.4,0.4-0.7,0.6-1c0.3-0.3,0.6-0.5,1-0.7
		c0.4-0.2,0.8-0.3,1.3-0.3c0.4,0,0.7,0.1,1,0.2c0.3,0.1,0.5,0.3,0.7,0.5c0.2,0.2,0.4,0.4,0.5,0.7c0.1,0.3,0.2,0.6,0.2,0.9
		c0,0.3-0.1,0.7-0.2,1h-4.1v0.1c0,0.4,0.1,0.7,0.4,0.9c0.2,0.2,0.5,0.3,0.9,0.3c0.4,0,0.6-0.1,0.9-0.2c0.2-0.1,0.4-0.3,0.6-0.6
		L24,13z M23,11L23,11c0-0.3-0.1-0.5-0.3-0.7c-0.2-0.2-0.5-0.3-0.9-0.3c-0.4,0-0.7,0.1-0.9,0.3c-0.3,0.2-0.5,0.4-0.6,0.7H23z"/>
	<path class="st1" d="M27.5,14.5c-0.4,0-0.7-0.1-1.1-0.2c-0.3-0.1-0.6-0.3-0.8-0.5c-0.2-0.2-0.4-0.5-0.5-0.8c-0.1-0.3-0.2-0.7-0.2-1
		c0-0.4,0.1-0.8,0.2-1.2c0.2-0.4,0.4-0.7,0.7-1c0.3-0.3,0.6-0.5,1-0.7c0.4-0.2,0.9-0.3,1.4-0.3c0.6,0,1.1,0.1,1.5,0.4
		s0.7,0.7,0.8,1.1l-1.4,0.5c-0.2-0.5-0.6-0.8-1.2-0.8c-0.2,0-0.5,0-0.7,0.1c-0.2,0.1-0.4,0.2-0.5,0.4s-0.3,0.3-0.3,0.6
		c-0.1,0.2-0.1,0.4-0.1,0.7c0,0.2,0,0.4,0.1,0.5c0.1,0.2,0.2,0.3,0.3,0.4c0.1,0.1,0.2,0.2,0.4,0.3c0.2,0.1,0.3,0.1,0.5,0.1
		c0.3,0,0.6-0.1,0.8-0.2c0.2-0.1,0.4-0.3,0.6-0.6l1.2,0.6c-0.4,0.6-0.7,1-1.2,1.2S28.1,14.5,27.5,14.5z"/>
	<path class="st1" d="M33.2,8.7l-0.3,1H33c0.2-0.3,0.5-0.5,0.8-0.6c0.3-0.2,0.6-0.2,1-0.2c0.3,0,0.5,0,0.8,0.1
		c0.2,0.1,0.4,0.2,0.5,0.4c0.1,0.2,0.2,0.3,0.3,0.5c0.1,0.2,0.1,0.4,0.1,0.6c0,0.2,0,0.4-0.1,0.6l-0.6,3.2h-1.4l0.6-3.1
		c0-0.1,0-0.2,0-0.3c0-0.2-0.1-0.4-0.2-0.6c-0.1-0.2-0.3-0.2-0.6-0.2c-0.2,0-0.4,0-0.6,0.1c-0.2,0.1-0.3,0.2-0.5,0.3
		s-0.2,0.3-0.3,0.5c-0.1,0.2-0.1,0.4-0.2,0.6l-0.5,2.6h-1.4l1.4-7.9h1.4L33.2,8.7z"/>
	<path d="M44.9,10h3.9v0.3c0,0.6-0.1,1.2-0.4,1.7c-0.2,0.5-0.6,1-1,1.3c-0.4,0.4-0.8,0.6-1.3,0.8c-0.5,0.2-1.1,0.3-1.6,0.3
		c-0.6,0-1.1-0.1-1.5-0.3c-0.5-0.2-0.9-0.4-1.2-0.8s-0.6-0.7-0.8-1.2c-0.2-0.5-0.3-1-0.3-1.5c0-0.6,0.1-1.2,0.3-1.7
		c0.2-0.5,0.6-1,1-1.4c0.4-0.4,0.9-0.7,1.5-1c0.6-0.2,1.2-0.4,2-0.4c0.7,0,1.2,0.1,1.7,0.3s0.9,0.5,1.2,0.9l-1.2,1
		C47,8.3,46.8,8.1,46.4,8c-0.3-0.2-0.7-0.2-1.2-0.2c-0.4,0-0.8,0.1-1.2,0.2c-0.4,0.1-0.7,0.3-1,0.6c-0.3,0.3-0.5,0.6-0.7,1
		c-0.2,0.4-0.2,0.8-0.2,1.2c0,0.4,0.1,0.7,0.2,1s0.3,0.5,0.5,0.8c0.2,0.2,0.5,0.4,0.8,0.5c0.3,0.1,0.6,0.2,0.9,0.2
		c0.7,0,1.4-0.2,1.8-0.6c0.2-0.1,0.3-0.3,0.4-0.5c0.1-0.2,0.2-0.4,0.3-0.7h-2.4L44.9,10z"/>
	<path d="M49,14.4L49.9,9h1.4l-0.1,0.7h0.1c0.2-0.3,0.4-0.5,0.7-0.7c0.3-0.2,0.6-0.3,1-0.3c0.2,0,0.3,0,0.5,0.1
		c0.1,0,0.2,0.1,0.3,0.2l-0.5,1.3c-0.1,0-0.2-0.1-0.3-0.1c-0.1,0-0.2,0-0.4,0c-0.4,0-0.8,0.1-1.1,0.4s-0.5,0.7-0.5,1.1l-0.5,2.6H49z
		"/>
	<path d="M56.5,8.8c0.4,0,0.7,0.1,1.1,0.2c0.3,0.1,0.6,0.3,0.8,0.5c0.2,0.2,0.4,0.5,0.5,0.8c0.1,0.3,0.2,0.6,0.2,1
		c0,0.5-0.1,0.9-0.2,1.3c-0.2,0.4-0.4,0.7-0.7,1c-0.3,0.3-0.6,0.5-1,0.7s-0.8,0.2-1.3,0.2c-0.4,0-0.7-0.1-1.1-0.2s-0.6-0.3-0.8-0.5
		c-0.2-0.2-0.4-0.5-0.5-0.8c-0.1-0.3-0.2-0.6-0.2-1c0-0.5,0.1-0.9,0.2-1.3c0.2-0.4,0.4-0.7,0.7-1c0.3-0.3,0.6-0.5,1-0.7
		S56,8.8,56.5,8.8z M55.9,13.2c0.2,0,0.5,0,0.7-0.1c0.2-0.1,0.4-0.2,0.5-0.4c0.2-0.2,0.3-0.3,0.4-0.6c0.1-0.2,0.1-0.4,0.1-0.7
		c0-0.2,0-0.4-0.1-0.5c-0.1-0.2-0.2-0.3-0.3-0.4c-0.1-0.1-0.2-0.2-0.4-0.3c-0.2-0.1-0.3-0.1-0.5-0.1c-0.2,0-0.5,0-0.7,0.1
		c-0.2,0.1-0.4,0.2-0.5,0.4c-0.2,0.2-0.3,0.3-0.4,0.6c-0.1,0.2-0.1,0.4-0.1,0.7c0,0.2,0,0.4,0.1,0.5c0.1,0.2,0.2,0.3,0.3,0.4
		s0.3,0.2,0.4,0.3C55.6,13.2,55.8,13.2,55.9,13.2z"/>
	<path d="M63.3,13.7L63.3,13.7c-0.3,0.3-0.5,0.5-0.8,0.6s-0.6,0.2-1,0.2c-0.3,0-0.5,0-0.7-0.1c-0.2-0.1-0.4-0.2-0.5-0.4
		c-0.1-0.2-0.3-0.3-0.3-0.5s-0.1-0.4-0.1-0.7c0-0.1,0-0.2,0-0.3c0-0.1,0-0.2,0-0.4L60.3,9h1.4l-0.6,3.1c0,0,0,0.1,0,0.1
		c0,0,0,0.1,0,0.2c0,0.2,0.1,0.4,0.2,0.6c0.1,0.2,0.3,0.2,0.6,0.2c0.2,0,0.4,0,0.6-0.1c0.2-0.1,0.3-0.2,0.4-0.3
		c0.1-0.1,0.2-0.3,0.3-0.5c0.1-0.2,0.1-0.4,0.2-0.6L64,9h1.4l-0.9,5.4h-1.4L63.3,13.7z"/>
	<path d="M67.9,9.7L67.9,9.7c0.3-0.3,0.5-0.5,0.8-0.6c0.3-0.2,0.6-0.2,1-0.2c0.3,0,0.5,0,0.7,0.1C70.7,9,70.8,9.1,71,9.3
		c0.1,0.2,0.3,0.3,0.3,0.5s0.1,0.4,0.1,0.7c0,0.1,0,0.2,0,0.3c0,0.1,0,0.2,0,0.4l-0.6,3.2h-1.4l0.5-3.1c0,0,0-0.1,0-0.1
		c0-0.1,0-0.1,0-0.2c0-0.2-0.1-0.4-0.2-0.6c-0.1-0.2-0.3-0.2-0.6-0.2c-0.2,0-0.4,0-0.6,0.1c-0.2,0.1-0.3,0.2-0.4,0.3
		c-0.1,0.1-0.2,0.3-0.3,0.5c-0.1,0.2-0.1,0.4-0.2,0.6l-0.5,2.6h-1.4L66.6,9H68L67.9,9.7z"/>
	<path d="M74.4,14.5c-0.3,0-0.6-0.1-0.9-0.2S73,14,72.8,13.8c-0.2-0.2-0.4-0.5-0.5-0.8c-0.1-0.3-0.2-0.7-0.2-1
		c0-0.4,0.1-0.8,0.2-1.2c0.1-0.4,0.4-0.7,0.6-1c0.3-0.3,0.6-0.5,1-0.7c0.4-0.2,0.8-0.3,1.2-0.3c0.4,0,0.7,0.1,1,0.2
		c0.3,0.2,0.5,0.4,0.6,0.6h0.1l0-0.8l0.4-2.4h1.4l-1.4,7.9H76l0.1-0.6h-0.1c-0.1,0.2-0.4,0.4-0.6,0.6C75.2,14.5,74.8,14.5,74.4,14.5
		z M75.2,10.1c-0.2,0-0.5,0-0.7,0.1c-0.2,0.1-0.4,0.2-0.5,0.4c-0.1,0.2-0.3,0.3-0.3,0.6c-0.1,0.2-0.1,0.4-0.1,0.7
		c0,0.4,0.1,0.7,0.4,1c0.2,0.2,0.6,0.4,1,0.4c0.2,0,0.4,0,0.6-0.1c0.2-0.1,0.4-0.2,0.5-0.4c0.2-0.2,0.3-0.3,0.4-0.6s0.1-0.5,0.1-0.7
		c0-0.4-0.1-0.7-0.4-0.9C75.9,10.2,75.6,10.1,75.2,10.1z"/>
	<path d="M80.8,14.5c-0.3,0-0.6,0-0.9-0.1c-0.3-0.1-0.5-0.2-0.7-0.3c-0.2-0.1-0.4-0.3-0.5-0.5c-0.1-0.2-0.2-0.4-0.3-0.6l1.3-0.5
		c0.1,0.3,0.2,0.5,0.4,0.6c0.2,0.1,0.5,0.2,0.7,0.2c0.2,0,0.5,0,0.6-0.1c0.2-0.1,0.3-0.2,0.3-0.4c0-0.1-0.1-0.3-0.2-0.4
		c-0.1-0.1-0.3-0.2-0.6-0.2L80.5,12c-0.2,0-0.3-0.1-0.5-0.2s-0.3-0.2-0.5-0.3c-0.1-0.1-0.2-0.3-0.3-0.4c-0.1-0.2-0.1-0.4-0.1-0.6
		c0-0.3,0.1-0.5,0.2-0.7s0.3-0.4,0.5-0.5C80,9.1,80.2,9,80.5,8.9c0.3-0.1,0.6-0.1,0.9-0.1c1.1,0,1.8,0.4,2.1,1.3l-1.3,0.5
		c-0.1-0.2-0.2-0.4-0.4-0.5C81.8,10,81.6,10,81.3,10c-0.3,0-0.5,0-0.6,0.1s-0.2,0.2-0.2,0.3c0,0.2,0.2,0.4,0.6,0.5l0.8,0.2
		c0.5,0.1,0.8,0.3,1,0.6c0.2,0.3,0.3,0.6,0.3,0.9c0,0.3-0.1,0.6-0.2,0.8c-0.1,0.2-0.3,0.4-0.5,0.6s-0.5,0.3-0.8,0.4
		S81.2,14.5,80.8,14.5z"/>
</g>
</svg>
